<?xml version="1.0" encoding="UTF-8"?>
<svg id="Calque_1" xmlns="http://www.w3.org/2000/svg" viewBox="0 0 514.62 459.07">
  <path class="cls-1" d="M237.96,459.07c0-1.49,0-2.37,0-3.25.34-46.96.7-93.92.96-140.89.01-2.71.76-4.17,3.26-5.44,89.73-45.57,179.41-91.24,269.1-136.88.86-.44,1.73-.83,3.03-1.45,0,1.36,0,2.24,0,3.12.08,47.87.14,95.75.3,143.62,0,2.76-.86,4.2-3.34,5.43-90.02,44.71-180.01,89.5-270.01,134.27-.87.43-1.78.8-3.31,1.48Z"/>
  <path class="cls-1" d="M404.93,85.86c-2.74-.3-5.48-.8-8.22-.85-5.95-.12-11.9-.17-17.84.05-7.75.29-15.07,2.56-22.12,5.67-10.21,4.52-18.35,11.35-22.71,21.89-1.15,2.78-1.9,5.91-2.01,8.91-.27,7.98-.16,15.99-.05,23.98.04,3.07.44,6.14.82,9.2.09.73.69,1.45,1.18,2.08,6.69,8.63,15.55,13.87,25.94,16.87,10.67,3.09,21.61,3.84,32.54,2.98,15.33-1.21,30.01-5.12,43.4-13.09,2.29-1.37,3.58-2.97,3.61-5.82.05-5.33.54-10.66.7-16,.22-7.4.33-14.81.42-22.22.06-4.82-1.56-9.17-4.3-13.14.18-.19.37-.38.55-.57,22.28,14.45,44.56,28.9,67.35,43.68-1.35.83-2.18,1.43-3.08,1.89-87.2,43.76-174.4,87.5-261.6,131.25-2.92,1.47-5.83,2.95-8.75,4.43-2.69,1.36-5.06,1.12-7.55-.81-50.9-39.56-101.85-79.06-152.78-118.58-15.71-12.19-31.38-24.43-47.07-36.66-.56-.44-1.06-.94-2.11-1.88,16.04-8.3,31.74-16.43,47.86-24.77,0,2.18,0,3.85,0,5.53-.02,6.36-.26,12.73,0,19.08.23,5.57.81,11.16,1.72,16.66.3,1.79,1.97,3.46,3.29,4.94,5.88,6.62,13.42,10.72,21.79,13.07,5.95,1.66,12.09,3.1,18.22,3.56,7.91.6,15.97.84,23.83-.03,14.85-1.66,28.97-5.96,40.88-15.54,1.33-1.07,2.31-3.38,2.34-5.13.2-11.79.65-23.62-.04-35.38-.81-13.9-8.1-23.93-20.92-29.62-6.77-3.01-13.82-5.15-21.25-5.86-3.39-.32-6.77-.8-10.51-1.88,34.46-17.77,68.91-35.54,103.37-53.31-4.79,4.44-9.66,8.57-13.3,14.08-2.56,3.86-3.69,8.07-4.07,12.4-.63,7.2-.82,14.46-.78,21.69.02,3.56.73,7.18,1.56,10.67,1.14,4.85,4.79,8.12,8.44,11.02,8.63,6.86,18.58,10.97,29.38,13.21,7.47,1.55,14.99,1.65,22.41.54,14.12-2.11,26.99-7.62,38.78-15.64,1.12-.76,2.29-1.44,3.47-2.11,3.08-1.75,3.74-4.93,3.91-7.89.36-6.38.41-12.8.15-19.18-.24-5.95-.98-11.88-1.63-17.81-.13-1.18-.78-2.35-1.36-3.44-4.85-9.14-11.76-16.27-21.21-20.55-12.08-5.46-24.84-7.75-38.05-6.33-5.22.56-10.31,2.19-16.29,3.52,4.18-2.18,7.67-4.01,11.17-5.82,5.16-2.67,10.38-5.23,15.48-8.02,1.92-1.05,3.34-1,5.2.21,26.93,17.52,53.91,34.97,80.87,52.43,15.78,10.22,31.55,20.44,47.33,30.67.6.39,1.18.81,1.77,1.21l-.13.59ZM302.05,207.68c0-5.36-.2-10.72.04-16.07.47-10.24-4.74-17.79-12.17-23.52-11.68-9.01-25.59-12.65-40.11-13.34-6.7-.32-13.51.62-20.22,1.45-8.49,1.05-16.42,4.01-23.74,8.44-11.9,7.2-19.88,16.96-19.94,31.64-.04,8.54-.05,17.07.05,25.61.02,1.38.26,3.14,1.12,4.08,3.51,3.88,7.01,7.85,11.02,11.17,12.93,10.68,28.28,14.79,44.7,15.34,7.87.26,15.65-1.03,23.27-3.08,12.69-3.42,23.88-9.59,33.56-18.51,1.72-1.59,2.5-3.39,2.46-5.76-.11-5.81-.03-11.62-.03-17.43Z"/>
  <path class="cls-1" d="M7.91,151.1c3.51,2.69,7.03,5.37,10.53,8.08,49.63,38.39,99.27,76.78,148.9,115.17,15.08,11.67,30.17,23.32,45.18,35.07.96.75,1.79,2.35,1.78,3.55-.33,44.7-.76,89.4-1.19,134.1,0,.88-.16,1.76-.29,3.16-1.4-.9-2.46-1.5-3.44-2.21-44.54-31.87-89.08-63.75-133.61-95.63-24.44-17.5-48.86-35.04-73.35-52.47-1.98-1.41-2.53-2.83-2.39-5.2.78-12.69,1.36-25.4,1.99-38.1,1.55-31.39,3.09-62.78,4.62-94.17.18-3.68.29-7.36.44-11.04.28-.1.56-.2.84-.3Z"/>
  <path class="cls-1" d="M175.63,126.21c0,6.21.13,11.57-.06,16.91-.08,2.13-.87,4.11-2.84,5.57-7.39,5.48-15.81,8.45-24.69,10.18-18.42,3.59-36.69,3.17-54.4-3.52-4.92-1.86-9.35-5.04-13.92-7.76-2.07-1.23-2.98-3.29-3.1-5.73-.18-3.66-.47-7.32-.43-11.3,14.25,13.56,31.86,16.82,50.22,16.03,18.29-.79,35.79-4.89,49.23-20.38Z"/>
  <path class="cls-1" d="M315.97,62.63c1.96,6.28,1.37,12.2-1.39,17.41-1.43,2.7-4.77,4.59-7.58,6.32-8.68,5.35-18.07,8.97-28.31,9.81-6.21.51-12.51,1.19-18.68.67-13.26-1.12-25.68-4.81-35.5-14.61-4.66-4.66-4.82-10.43-4.42-16.4.02-.34.24-.68.4-1.01.15-.32.35-.61.77-1.32,12.3,15.01,28.87,19.67,47.11,19.24,18.19-.43,34.5-6.16,47.6-20.11Z"/>
  <path class="cls-1" d="M434.36,139.4c-.28,5.19-.49,10.18-.89,15.14-.08.93-.75,2.07-1.5,2.63-8.22,6.17-17.44,10.18-27.6,11.59-6.43.9-12.98,1.81-19.42,1.49-16.28-.81-31.38-5.51-44.4-15.76-.47-.37-1.08-.96-1.09-1.45-.09-4.3-.05-8.61-.05-12.28,4.87,3.13,9.67,6.91,15.03,9.51,8.48,4.11,17.46,6.89,27.09,6.8,5.79-.05,11.64.54,17.35-.14,13.55-1.62,26.16-5.57,34.84-17.24.09-.12.3-.14.66-.3Z"/>
  <path class="cls-1" d="M431.47,131.81c-1.96,4.88-5.88,8.01-10.09,10.68-7.51,4.76-15.8,7.61-24.67,8.09-7.37.39-14.85.73-22.14-.13-10.52-1.24-20.38-4.97-28.37-12.26-6.7-6.12-9.57-13.92-6.91-22.78,1.01-3.37,3.93-6.19,6.09-9.18,5.38-7.43,13.47-10.63,21.77-12.92,15.36-4.25,30.69-3.79,45.62,2.15,7.1,2.82,13.45,6.81,17.91,13.22,4.44,6.38,5.74,13.22,2.42,20.53-.44.96-1.15,1.8-1.74,2.69.11-4.32.98-8.78.19-12.92-1.84-9.64-8.6-15.62-17.19-19.38-15.78-6.9-31.99-7.47-48.35-2.09-8.48,2.78-16.03,7.03-22.2,13.7-5.47,5.91-5.93,18.08,1.49,23.98,1.84,1.47,3.59,3.1,5.57,4.35,8.93,5.62,18.81,8.06,29.26,9.04,11.98,1.12,23.42-.61,34.56-4.96,6.57-2.56,11.72-7.09,16.76-11.8Z"/>
  <path class="cls-1" d="M123.44,141.26c-12.86,0-25.05-2.6-36.07-9.57-7.21-4.56-12.11-10.62-11.88-19.7.12-4.66,2.76-8.43,5.72-11.36,9.9-9.81,21.6-17.25,35.43-19.53,15.14-2.49,30.07-.69,43.52,7.65,6.12,3.79,11.2,8.89,13.79,15.63,2.92,7.61.28,14.41-5.02,20.21-6.81,7.46-15.54,11.76-25.14,14.08-6.62,1.6-13.47,2.2-20.22,3.25-.04-.22-.09-.44-.13-.66ZM128.03,82.61c-6.77.09-13.35,1.06-19.85,3.05-8.38,2.56-14.91,7.98-21.58,13.22-3.94,3.09-6.71,7.07-8.13,11.96-1.49,5.11-1.11,9.75,3.33,13.27,3.04,2.41,6.03,5.05,9.45,6.8,12.19,6.26,25.19,8.49,38.89,7.36,7.74-.64,15.23-2.04,22.38-4.97,8.12-3.34,15.26-7.98,19.55-16.06,1.49-2.8,1.78-5.59.92-8.67-1.75-6.3-5.37-11.28-10.49-15.18-10.18-7.75-21.93-10.54-34.46-10.77Z"/>
  <path class="cls-1" d="M222.31,53.1c-.54-5.33-1.09-10.65,1.78-15.67,5.01-8.76,13.14-13.37,22.31-16.32,18.36-5.89,36.33-4.84,53.53,4.13,3.32,1.73,6.39,4.21,9.05,6.88,5.86,5.86,6.67,13.12,4.72,20.87-.1.41-.42.76-.84,1.49.98-15.36-8.18-23.36-20.37-28.41-18.66-7.73-37.07-6.46-54.52,3.95-6.31,3.76-11.09,9.11-13.44,16.26-.73,2.22-1,4.58-1.48,6.88-.25-.02-.5-.03-.75-.05Z"/>
  <path class="cls-1" d="M311.21,57.05c-2.98,5.24-7.47,8.8-12.59,11.63-10.62,5.89-22.11,8.02-34.13,7.42-11.51-.57-22.46-3.13-31.99-10.04-3.59-2.6-6.71-5.68-8.24-8.87,1.28,1.09,3.25,2.74,5.2,4.41,7.28,6.2,16,9.21,25.18,10.78,12.43,2.13,24.73,1.26,36.73-2.88,7.58-2.62,14.3-6.55,19.82-12.46Z"/>
  <path class="cls-1" d="M192.31,209.38c30.04,32.97,87.36,20.57,101.66,1.17.26.25.73.49.73.72-.06,3.78.15,7.6-.39,11.31-.56,3.88-4.4,5.34-7.07,7.46-9.04,7.19-19.33,11.99-30.64,14.3-8.55,1.74-17.19,1.92-25.89.42-10.35-1.79-19.86-5.46-27.94-12.11-3.66-3.01-6.75-6.83-9.54-10.68-1.1-1.52-.76-4.14-.9-6.27-.13-1.94-.03-3.9-.03-6.32Z"/>
  <path class="cls-1" d="M244.01,223.33c-12.7.24-24.7-2.47-35.78-8.81-4.67-2.68-8.64-6.16-11.94-10.5-4.69-6.16-4.39-15.7-.5-21.99,4.16-6.73,10.17-11.39,17.22-14.53,19.93-8.88,40.26-9.9,60.66-1.7,8.04,3.23,14.7,8.38,19.01,16.22,4.16,7.57,2.4,17.85-3.19,24.21-6.72,7.65-15.28,12.13-24.88,14.51-6.69,1.66-13.64,2.26-20.47,3.33-.04-.25-.08-.49-.13-.74ZM241.99,221.05c.04.23.08.46.12.69,6.68-1.05,13.46-1.67,20.01-3.24,9.82-2.37,18.79-6.66,25.63-14.43,1.52-1.73,3.17-3.78,3.65-5.93,2.11-9.38-.98-17.58-8.15-23.42-8.5-6.91-18.86-10.75-29.63-12.06-15.51-1.88-30.19,1.75-44.01,9.08-4.68,2.48-8.34,5.88-10.72,10.48-5.73,11.06-4.84,19.83,5.49,27.84,1.43,1.11,2.92,2.16,4.49,3.05,10.27,5.84,21.41,8.08,33.11,7.94Z"/>
</svg>