<?xml version="1.0" encoding="UTF-8"?>
<svg id="Calque_1" xmlns="http://www.w3.org/2000/svg" version="1.1" viewBox="0 0 320 240">
  <!-- Generator: Adobe Illustrator 29.1.0, SVG Export Plug-In . SVG Version: 2.1.0 Build 142)  -->
  <defs>
    <style>
      .st0 {
        fill: #fff;
      }
    </style>
  </defs>
  <path class="st0" d="M20.32.43c-27.59,5.22-26.53,43.98,1.31,47.71h276.74c28.62-3.95,28.57-43.97,0-47.89L20.32.43ZM20.32,96.24c-27.59,5.22-26.53,43.98,1.31,47.71h276.74c28.62-3.95,28.57-43.97,0-47.89l-278.05.19ZM20.32,192.05c-27.59,5.22-26.53,43.98,1.31,47.71h276.74c28.62-3.95,28.57-43.97,0-47.89l-278.05.19Z"/>
  <path d="M20.32.43l278.05-.19c28.57,3.93,28.62,43.94,0,47.89H21.63C-6.21,44.41-7.27,5.65,20.32.43Z"/>
  <path d="M20.32,96.24l278.05-.19c28.57,3.93,28.62,43.94,0,47.89H21.63c-27.84-3.72-28.91-42.49-1.31-47.71Z"/>
  <path d="M20.32,192.05l278.05-.19c28.57,3.93,28.62,43.94,0,47.89H21.63c-27.84-3.72-28.91-42.49-1.31-47.71Z"/>
</svg>