<?xml version="1.0" encoding="UTF-8"?>
<svg id="Calque_1" xmlns="http://www.w3.org/2000/svg" version="1.1" viewBox="0 0 595.28 841.89">
  <!-- Generator: Adobe Illustrator 29.1.0, SVG Export Plug-In . SVG Version: 2.1.0 Build 142)  -->
  <defs>
    <style>
      .st0 {
        fill: transparent;
      }
    </style>
  </defs>
  <path class="st0" d="M511.43,207.15v427.59H83.84V207.15h427.59ZM403.91,563.89h28.76c20.48,0,40.27-19.51,42.08-39.61l.04-258.41c-3.06-23.67-20.24-38.71-43.8-40.39-69.82,3.07-143.17-4.11-212.58-.05-19.34,1.13-35.77,10.24-42.69,29-5.13,13.92-1.06,26.21-2.66,39.85-.14,1.21-.1,2.14-1.29,2.87h-15c-16.07,0-36.94,22.49-37.08,38.77l-.04,240.9c3.06,23.66,20.23,38.71,43.8,40.39h196.69c19.42.82,43.77-19.94,43.77-39.58v-13.75Z"/>
  <path d="M403.91,563.89v13.75c0,19.64-24.34,40.4-43.77,39.58h-196.69c-23.57-1.67-40.74-16.72-43.8-40.39l.04-240.9c.14-16.28,21.01-38.77,37.08-38.77h15c1.19-.73,1.15-1.66,1.29-2.87,1.6-13.64-2.48-25.93,2.66-39.85,6.92-18.75,23.35-27.87,42.69-29,69.41-4.06,142.76,3.12,212.58.05,23.56,1.67,40.73,16.71,43.8,40.39l-.04,258.41c-1.81,20.09-21.6,39.61-42.08,39.61h-28.76ZM403.91,528.05h28.76c3.37,0,7.77-6.85,7.12-10.39l-.6-249.52c-.9-3.49-2.75-5.19-6.07-6.43h-218.43c-2.78.48-6.64,4.97-6.64,7.53v26.67l1.25,1.25h157.53c15.52,0,37.09,23.42,37.09,38.76v192.12ZM366.14,578.64c1.21-1.37,1.95-4.09,1.97-5.95l-.42-234.72c-1.71-3.9-5.93-5.65-10.01-5.82-54.2.38-108.41-.38-162.6,0-9.51.07-20.48-.88-30.01,0-4.78.45-8.32,2.05-9.82,6.85v235.58c.91,3.49,2.76,5.19,6.08,6.43h200.93c1.04-.79,3.1-1.49,3.87-2.36Z"/>
  <path class="st0" d="M366.14,578.64c-.78.88-2.84,1.58-3.87,2.38h-200.93c-3.32-1.25-5.17-2.95-6.07-6.44v-235.58c1.49-4.8,5.04-6.4,9.82-6.85,9.52-.89,20.5.06,30.01,0,54.2-.37,108.4.39,162.6,0,4.08.18,8.3,1.92,10.01,5.82l.42,234.72c-.02,1.87-.76,4.58-1.97,5.95Z"/>
  <path class="st0" d="M403.91,528.05v-192.12c0-15.34-21.57-38.76-37.09-38.76h-157.53l-1.25-1.25v-26.67c0-2.55,3.86-7.05,6.64-7.53h218.43c3.32,1.24,5.17,2.94,6.07,6.43l.6,249.52c.65,3.53-3.75,10.39-7.12,10.39h-28.76Z"/>
</svg>