<?xml version="1.0" encoding="UTF-8"?>
<svg id="Calque_1" xmlns="http://www.w3.org/2000/svg" version="1.1" viewBox="0 0 595.28 841.89">
  <!-- Generator: Adobe Illustrator 29.1.0, SVG Export Plug-In . SVG Version: 2.1.0 Build 142)  -->
  <defs>
    <style>
      .st0 {
        fill: transparent;
      }
    </style>
  </defs>
  <path class="st0" d="M106,329.19v-100.3h384v384h-100.3c29.64-2.88,54.8-29.19,56.92-58.73,2.16-30.01-1.67-62.57-.02-92.85-4.62-25.78-40.58-24.64-42.7,2.22-2.26,28.62,1.8,60.11-.04,89.04-1.81,9.41-9.33,16.73-18.99,17.69h-216.39c-10.64-.74-19.22-9.12-19.84-19.84v-216.39c.95-9.66,8.27-17.18,17.68-18.99,28.93-1.83,60.42,2.22,89.04-.04,26.44-2.08,28.11-37.3,2.9-42.63-30.49,1.54-63.32-2.26-93.53-.09-30.47,2.19-54.89,26.95-58.73,56.92ZM446.58,303v78.97c0,4.02,5.34,11.43,8.61,13.85,12.75,9.4,30.87,1.96,33.72-13.43l.36-132.93c-.92-10.69-9.15-18.91-19.84-19.84l-132.93.36c-15.4,2.85-22.84,20.97-13.43,33.72,2.41,3.27,9.83,8.61,13.85,8.61h78.97l-176.64,177.05c-16.74,21.06,8.51,47.28,30.28,30.28l177.05-176.64Z"/>
  <path d="M389.7,612.89h-226.81c-3.69-1.09-7.52-1.53-11.22-2.62-19.99-5.9-36.86-22.45-42.87-42.47-1.17-3.9-1.7-7.9-2.8-11.8v-226.81c3.84-29.96,28.26-54.73,58.73-56.92,30.21-2.17,63.05,1.63,93.53.09,25.21,5.33,23.54,40.55-2.9,42.63-28.62,2.26-60.11-1.8-89.04.04-9.41,1.81-16.73,9.33-17.69,18.99v216.39c.62,10.72,9.2,19.1,19.84,19.84h216.39c9.66-.95,17.18-8.27,18.99-17.68,1.83-28.93-2.22-60.42.04-89.04,2.12-26.87,38.08-28,42.7-2.22-1.65,30.28,2.18,62.84.02,92.85-2.12,29.54-27.28,55.85-56.92,58.73Z"/>
  <path class="st0" d="M162.89,612.89h-56.89v-56.89c1.09,3.9,1.63,7.9,2.8,11.8,6,20.02,22.88,36.56,42.87,42.47,3.71,1.09,7.54,1.53,11.22,2.62Z"/>
  <path d="M446.58,303l-177.05,176.64c-21.76,17-47.02-9.22-30.28-30.28l176.64-177.05h-78.97c-4.02,0-11.43-5.34-13.85-8.61-9.4-12.75-1.96-30.87,13.43-33.72l132.93-.36c10.69.92,18.91,9.14,19.84,19.84l-.36,132.93c-2.85,15.4-20.97,22.84-33.72,13.43-3.27-2.41-8.61-9.83-8.61-13.85v-78.97Z"/>
</svg>