<?xml version="1.0" encoding="UTF-8"?>
<svg id="Calque_1" xmlns="http://www.w3.org/2000/svg" version="1.1" viewBox="0 0 595.28 841.89">
  <!-- Generator: Adobe Illustrator 29.1.0, SVG Export Plug-In . SVG Version: 2.1.0 Build 142)  -->
  <defs>
    <style>
      .st0 {
        fill: transparent;
      }
    </style>
  </defs>
  <path class="st0" d="M490,228.89v384H106V228.89h384ZM254.96,330.69l18.38-73.32c3.18-22.05-25.16-30.41-34.31-10.36l-20.78,83.64h-87.2c-15.95-.32-25.6,19-14.22,30.75,1.26,1.3,7.56,5.21,9.01,5.21h82.71l-26.86,108.85-54.36.43c-21.83,2.44-18.59,35.93,1.5,35.93h43.79l-18.76,76.71c.63,19.7,25.73,25.46,34.5,7.52l20.94-84.23h130.99l-18.38,73.32c-3.18,22.05,25.16,30.41,34.31,10.36l20.78-83.64h87.2c16.04.14,25.53-18.7,14.21-30.74-1.38-1.47-7.33-5.23-9-5.23h-82.71l26.86-108.85,54.36-.43c15.32-2.03,20.78-21.64,8.96-31.42-2.2-1.82-7.75-4.51-10.46-4.51h-43.79l18.76-76.71c-.64-19.71-25.73-25.46-34.5-7.52l-20.94,84.23h-130.99Z"/>
  <path d="M254.96,330.69h130.99l20.94-84.23c8.77-17.94,33.86-12.2,34.5,7.52l-18.76,76.71h43.79c2.71,0,8.26,2.69,10.46,4.51,11.82,9.78,6.36,29.39-8.96,31.42l-54.36.43-26.86,108.85h82.71c1.67,0,7.62,3.76,9,5.23,11.32,12.04,1.83,30.88-14.21,30.73h-87.2s-20.78,83.65-20.78,83.65c-9.15,20.05-37.49,11.69-34.31-10.36l18.38-73.32h-130.99l-20.94,84.23c-8.77,17.95-33.87,12.19-34.5-7.52l18.76-76.71h-43.79c-20.09,0-23.33-33.49-1.5-35.93l54.36-.43,26.86-108.85h-82.71c-1.45,0-7.75-3.92-9.01-5.21-11.38-11.75-1.73-31.07,14.22-30.74h87.2s20.78-83.65,20.78-83.65c9.15-20.05,37.49-11.69,34.31,10.36l-18.38,73.32ZM376.22,366.62h-130.25l-26.95,109.29h130.25l26.95-109.29Z"/>
  <polygon class="st0" points="376.22 366.62 349.27 475.91 219.03 475.91 245.98 366.62 376.22 366.62"/>
</svg>