<?xml version="1.0" encoding="UTF-8"?>
<svg id="Calque_1" xmlns="http://www.w3.org/2000/svg" version="1.1" viewBox="0 0 595.28 841.89">
  <!-- Generator: Adobe Illustrator 29.1.0, SVG Export Plug-In . SVG Version: 2.1.0 Build 142)  -->
  <defs>
    <style>
      .st0 {
        fill: transparent;
      }
    </style>
  </defs>
  <path class="st0" d="M162.89,612.89h-56.89v-56.89c1.09,3.9,1.63,7.9,2.8,11.8,6,20.02,22.88,36.56,42.87,42.47,3.71,1.09,7.54,1.53,11.22,2.62Z"/>
  <path d="M446.58,303l-304.86,304.44c-21.76,17-47.02-9.22-30.28-30.28l304.44-304.86h-78.97c-4.02,0-11.43-5.34-13.85-8.61-9.4-12.75-1.96-30.87,13.43-33.72l132.93-.36c10.69.92,18.91,9.14,19.84,19.84l-.36,132.93c-2.85,15.4-20.97,22.84-33.72,13.43-3.27-2.41-8.61-9.83-8.61-13.85v-78.97Z"/>
</svg>