<?xml version="1.0" encoding="UTF-8"?>
<svg id="Vector" xmlns="http://www.w3.org/2000/svg" version="1.1" xmlns:xlink="http://www.w3.org/1999/xlink" viewBox="0 0 523.17 523.26">
  <!-- Generator: Adobe Illustrator 29.1.0, SVG Export Plug-In . SVG Version: 2.1.0 Build 142)  -->
  <defs>
    <style>
      .st0 {
        fill: #eee7de;
      }

      .st1 {
        fill: #6c441f;
      }

      .st2 {
        fill: #413e3c;
      }

      .st3 {
        fill: #cb4b2c;
      }

      .st4 {
        fill: #feebd5;
      }

      .st5 {
        fill: #82532b;
      }

      .st6 {
        fill: #595552;
      }

      .st7 {
        fill: #423f3d;
      }

      .st8 {
        fill: #231e1b;
      }

      .st9 {
        fill: #6d6868;
      }

      .st10 {
        fill: #603b2b;
      }

      .st11 {
        fill: #efe8de;
      }

      .st12 {
        fill: #523821;
      }

      .st13 {
        fill: #464240;
      }

      .st14 {
        fill: #4c4947;
      }

      .st15 {
        fill: #1d1b1a;
      }

      .st16 {
        fill: #fce1c5;
      }

      .st17 {
        fill: #3c3532;
      }

      .st18 {
        fill: #895422;
      }

      .st19 {
        fill: #e3e5e7;
      }

      .st20 {
        stroke-width: 5px;
      }

      .st20, .st21 {
        fill: none;
      }

      .st20, .st22 {
        stroke: #1d1d1b;
      }

      .st20, .st22, .st23 {
        stroke-miterlimit: 10;
      }

      .st24 {
        fill: #e2d3c3;
      }

      .st25 {
        fill: #2b221e;
      }

      .st26 {
        fill: #736e6d;
      }

      .st27 {
        fill: #b5826c;
      }

      .st28 {
        fill: #595653;
      }

      .st29 {
        fill: #44403e;
      }

      .st30 {
        fill: #fef9f1;
      }

      .st31 {
        fill: #d2b092;
      }

      .st32 {
        fill: #2a211b;
      }

      .st33 {
        fill: #fee6cc;
      }

      .st34 {
        fill: #e2ddd5;
      }

      .st35 {
        fill: #e1aa79;
      }

      .st36 {
        fill: #a9aaac;
      }

      .st37 {
        fill: #fdf6ed;
      }

      .st38 {
        fill: #fadcbd;
      }

      .st39 {
        fill: #363231;
      }

      .st40 {
        fill: #34231a;
      }

      .st41 {
        fill: #fdf7ef;
      }

      .st42 {
        fill: #5b3c1c;
      }

      .st43 {
        fill: #fef9f0;
      }

      .st44 {
        fill: #56534f;
      }

      .st45 {
        fill: #969394;
      }

      .st46 {
        fill: #ba9f89;
      }

      .st47 {
        fill: #1c1a1a;
      }

      .st48 {
        fill: #593b1c;
      }

      .st49 {
        fill: #53504c;
      }

      .st50 {
        fill: #cbc9ca;
      }

      .st51 {
        fill: #bda88c;
      }

      .st52 {
        fill: #442d23;
      }

      .st53 {
        fill: #fef7ed;
      }

      .st22 {
        stroke-width: .25px;
      }

      .st22, .st23 {
        fill: #f8e8cf;
      }

      .st54 {
        fill: #6c6c6a;
      }

      .st55 {
        fill: #35231b;
      }

      .st56 {
        fill: #734b25;
      }

      .st57 {
        fill: #525250;
      }

      .st58 {
        fill: #f29032;
      }

      .st59 {
        fill: #7b552f;
      }

      .st60 {
        fill: #6f4923;
      }

      .st61 {
        fill: #feefdd;
      }

      .st62 {
        fill: #feedda;
      }

      .st63 {
        fill: #33221a;
      }

      .st64 {
        fill: #1c1b1a;
      }

      .st65 {
        fill: #f7ddc2;
      }

      .st66 {
        fill: #6f4e33;
      }

      .st67 {
        fill: #f39031;
      }

      .st68 {
        fill: #6c4722;
      }

      .st69 {
        fill: #997566;
      }

      .st70 {
        fill: #555450;
      }

      .st71 {
        fill: #cf4c2b;
      }

      .st72 {
        fill: #cca583;
      }

      .st73 {
        fill: #86746e;
      }

      .st74 {
        fill: #555350;
      }

      .st75 {
        fill: #53524e;
      }

      .st76 {
        fill: #3f3c3a;
      }

      .st77 {
        fill: #f0e8df;
      }

      .st78 {
        fill: #fdf8f0;
      }

      .st79 {
        fill: #4c3219;
      }

      .st80 {
        fill: #a27461;
      }

      .st81 {
        fill: #5f4123;
      }

      .st82 {
        fill: #5a5652;
      }

      .st83 {
        fill: #897269;
      }

      .st84 {
        fill: #d0c5b3;
      }

      .st23 {
        stroke: #f8e8cf;
        stroke-width: .24px;
      }

      .st85 {
        fill: #37251c;
      }

      .st86 {
        fill: #cf4b2b;
      }

      .st87 {
        fill: #bc722a;
      }

      .st88 {
        fill: #e08123;
      }

      .st89 {
        fill: #55524f;
      }

      .st90 {
        fill: #b5b1a8;
      }

      .st91 {
        fill: #585652;
      }

      .st92 {
        fill: #fcca80;
      }

      .st93 {
        fill: #805123;
      }

      .st94 {
        fill: #fcd3a7;
      }

      .st95 {
        clip-path: url(#clippath);
      }

      .st96 {
        fill: #e7e4dd;
      }

      .st97 {
        fill: #cf7926;
      }

      .st98 {
        fill: #837c75;
      }

      .st99 {
        fill: #945b26;
      }

      .st100 {
        fill: #fdf7ee;
      }
    </style>
    <clipPath id="clippath">
      <circle class="st20" cx="261.64" cy="261.42" r="258.69"/>
    </clipPath>
  </defs>
  <g class="st95">
    <rect class="st22" x="-125.68" y="-62.96" width="793.57" height="732.39"/>
    <circle class="st92" cx="261.64" cy="261.42" r="185.87"/>
    <g>
      <path class="st47" d="M258.63,473.02c-14.47-18.95-28.63-38.15-43.37-56.9-2.95-1.47-14.29,2.47-18.46,2.17-16.95-5.4-37.57-6.82-54.12-12.58-1.35-.47-2.72-.83-3.79-1.87l-5.37-61.59c-4.68,6.62-7.93,15.55-10.22,23.41-1.38,4.75-5.65,21.8-3.91,25.62.88,1.92,3.97,3.46,4.91,7.04,1.34,5.13-1.51,8.31-1.4,8.92.05.29,2.92,3.49,3.59,4.61,6.05,10.11,11.35,29.24,1.72,38.57-1.23,1.19-5.72,3.43-5.94,4.16-.31,1.05.5,2.12.45,3.04-.67,11.77-7.74,21.15-20.33,16.05-1.71-.69-4.78-3.7-5.09-3.75-.8-.14-2.63,2.36-4.59,2.83-3.6.86-7.84.27-10.94-1.72-1.34-.86-3.68-3.98-4.57-4.15-.95-.18-4.21.68-6.22.48-9.54-.97-13.81-14.09-12.89-22.32.36-3.19,2.32-6.11,2.98-8.97,2.26-9.75.37-17.1,7.39-25.3,1.56-1.82,9.59-7.91,9.73-8.55.2-.95-2.76-2.7-3.09-5.01-.94-6.47,5.59-8.48,9.92-11.39,2-33.1,11.29-67.61,36.25-90.75,1.54-1.43,7.39-5.22,7.79-6.73l-10.59-126.86c-.1-7.31-1.09-9.3,6.6-10.36,15.48-2.13,32.68-1.75,48.39-3.16,4.68-.42,9.45-1.53,14.16-1.88l-2.86-30.21c1.26-3.96,10.63-3.93,14.49-4.36,31.3-3.48,62.93-4.86,94.26-8.15,2.01.61,4.72,2.04,5.25,4.19,1.88,7.68,1.23,18.29,2.65,26.27.13.72.23,1.28,1.04,1.51l57.12-5.59c6.88-1.03,6.58,2.28,7.22,7.86,4.74,41.3,5.51,84.2,9.45,125.72.11,1.11.32,2.26.81,3.27l41.1,27.78c6.22-5.82,12.62-6.49,17.49,1.33,2.87-3.14,7.1-6.12,10.98-7.87,1.66-.75,8.26-2.43,8.53-2.78.6-.78,3.28-11.32,3.43-12.92.54-5.84-1.2-17.85.14-22.49.95-3.29,10.25-4.77,13.25-4.08,5.68,1.29,10.89,12.72,11.6,17.95,1.16,8.56-1.76,16.92-2.36,25.3,11.53.84,27.56,8.19,19.98,22.17-.68,1.26-2.72,2.56-2.88,3.37-.14.7,1.27,3.89,1.14,6.18-.18,3.19-2.59,7.21-2.55,10.1.03,1.98,1.42,3.22,1.28,6.24-.87,18.53-13.21,21.28-29.16,19.12-13.39-1.81-25.2-12.41-36.08-13.64-3-.34-7.54,2.65-11.16,3.02-7.96.82-14.9-.41-17.73-8.65-.48-1.4-.57-4.38-.95-5.02-.63-1.06-18.97-11.75-21.23-12.72-1.51.44-1.1,2.54-.63,3.77-.27,20.14,4.53,42.37,5.05,62.59.04,1.62-.4,2.95-1.55,4.1l-49.12,8.12c1.61,17.18-.08,34.73-5.29,51.27-.65,2.07-5.42,15.17-6.27,15.73-.52.34-1.3.49-1.83.19-9.18-12.68-18.36-25.4-27.76-37.92-1.14-1.52-3.97-3.75-4.7-5.4-.4-.91.51-10.43.34-12.88-.09-1.38-.46-2.67-.7-4.01-.44-.37-10.03,1.07-11.42,1.38-.69.16-2.18.29-1.72,1.37l48.68,65.15c1.54,1.19,5.23-2.24,8.53-1.69,6,.99,15.71,12.24,15.6,18.31-.07,3.98-4.66,5.63-4.93,9.1,7.05-2.03,15.63.69,15.77,9.12.05,2.95-1.84,4.43,1.52,6.6,4.16-28.21,30.78-53.3,60.36-42.76,22.83,8.13,31.35,34.57,24.64,56.73-2.82,9.33-12.08,15.15-18.38,21.86-4.31,4.59-7.52,10.12-11.43,15.02-6.59-2.36-13.29-4.63-20.19-6.01-5.23-1.05-11.3-2.3-16.46-1.45.24,1.26,1.33,1.03,2.2,1.25,10.81,2.73,20.59,2.46,31.73,7.25,3.61,1.55,6.72,2.17,4.97,6.21-10.71,24.86-57.59,31.41-80.01,21.67-16.13-7-13.48-19.45-19.88-31.98-1.03-2.06-2.5-3.53-4.4-4.4-3.26-3.4-6.06-5.08-5.4-10.7.19-1.62,2.05-5.05,2.05-5.34,0-.78-9.13-11.65-9.84-11.97-.39-.17-2.95,1.13-4.72,1.01-4.87-.33-10.83-8.1-11.95-12.61-4.57,5.79-10.6,7.56-16.98,3.15-.74.05-2.61,6.88-2.72,8.02-.2,2.19,4.21,3.46,6.12,4.91,19.76,14.96,12.32,53.28-7.68,65.14-10.42,6.18-32.17-2.77-41.88-8.66-12.53-7.6-30.11-25.79-33.09-40.47-1.11-5.46-1.73-18.75-.76-24.09.68-3.76,4.7-5.1,4.87-5.85.16-.7-1.25-1.84-1.57-2.79-1.45-4.4-1.39-14.58,3.46-16.66,2.09-.9,5.76-.59,6.91-1.26.55-.32,3.88-5.26,5.33-6.61,8.07-7.55,18.39-7.69,25.68-13.3,4.13-3.17,2.48-3.56,4.27-7.05s6.52-4.14,10.15-3.39c2.17.45,4.85,3.52,5.17,3.53.46,0,2.21-2.19,3.46-1.78.04.69.36,1.27.64,1.88.63,1.28.49,2.26-.42,2.93,3.92,8.81,9.3,16.43,16.14,22.85l1.69-.11c3.78,2.82,7.2,5.79,10.25,8.91.73.34,1.64,1.19,1.26,1.89,1.77,2.02,1.98,1.81.63-.63-.6.34-1.19-.59-1.26-1.26-9.86-10.1-18.9-21.63-25.78-33.95Z"/>
      <path class="st78" d="M284.4,506.97c-.19.32-.4.31-.63,0-1.88-2.35-3-1.95-5.26-3.22-1.77-1-5.16-4.06-6.68-5.58-4.87-4.35-14.37-15.86-15.45-22.07-.15-.85.02-1.67.36-2.45.91,1.95,1.52,1.34,1.89-.63,8.63,11.31,17.37,22.48,25.78,33.95Z"/>
      <path class="st28" d="M256.74,473.65c3.52,8.84,8.22,17.65,15.09,24.52-2.83-1.5-6.46-5.58-8.5-8.17-1.53-1.95-9.48-13.98-9.09-15.36.24-.84,2.33-.68,1.87-2.25.17.38.41.71.63,1.26Z"/>
      <path class="st19" d="M318.98,561.66c-1.36-1.54-2.97-2.91-4.4-4.4,2.83-.31,3.42,2.48,4.4,4.4Z"/>
      <path class="st36" d="M381.85,318.99c-1.06.68-.61,2.59-.63,3.77-1.2-.88-.47-3.02-.63-4.4,1.16-.35,1.1.56,1.25.63Z"/>
      <polygon class="st67" points="359.85 136.04 379.34 385.63 200.79 411.41 181.29 152.38 359.85 136.04"/>
      <path class="st88" d="M159.92,311.44c1.15-1.64,1.37-1.83,1.31-4.09-.17-6.48-4.29-22.31-9.43-26.45-4.08-3.28-15.69,4.86-16.39,4.14l-10.69-128.25,43.04-3.18,6.54.12c1.27,2.63.48,5.6.72,8.39,7.12,82.8,12.52,165.79,18.85,248.66l-48.6-10.68c-1.32-.54-.95-5.6-1.07-6.93l.56-4.68c8.95-23.76,11.41-47.54,13.76-72.48.15-1.6.75-3.11,1.4-4.56Z"/>
      <path class="st10" d="M247.94,476.16c2.83,2.9,3.91,6.46,6.03,9.38,6.7,9.21,13.41,16.48,22.89,22.69,3.71,2.57,2.8,7.73-1.26,9.43-.55.07-1.32.05-1.89,0l-3.14-1.26c-1.24-.7-2.38-1.57-3.47-2.5-1.89-1.6-9.25-10.35-10.66-10.07-4.91.97,6.43,12.97,6.59,13.83-.99,4.7-8.2,3.84-12.09,3.18-3.54-.6-5.91-1.32-8.66-3.81-.96-1.04-2.02-1.62-2.8-2.55-1.53-1.84-2.65-6.92-5.75-4.42-3.94,3.18,5.74,12.42,8.25,14.5,8.09,6.72,15.82,7.87,24.19,12.59,6.57,5.23,8.16,14.34,8.48,22.33.39,9.59-1.19,19.87-6.6,27.96-2.28,2.52-5.74,6.84-9.27,7.44-5.16.87-26.99-10.7-32.04-14.21-20.57-14.28-32.11-32.92-27.17-58.89.42-2.19,1.78-2.62,2.48-4.12-.73-1.32.12-4.47.62-6.21,3.16-10.87,8.62-16.36,18.82-21.04,5.68-2.61,14.6-6.24,19.53-1.04,1.07,1.6,6.3,8.5,6.95,4.07.41-2.76-5.22-10.81-6.32-14.13-2.05-4.7,2.85-5.81,6.29-3.14Z"/>
      <path class="st10" d="M358.59,535.89c.22.66-.37,2.21.58,2.87.49.34,2.07.5,2.5.21,1.67-1.15,5.14-24.97,6.03-28.86,5.85-25.6,31.21-45.74,56.9-31.74-15.7,7.67-29.57,25.78-34.11,42.58-3.98,14.75-4.83,25.33-13.67,38.83-.44,1.43-1.28,2.34-1.89.63-.54-.96-1.21-2.08-2.51-1.88-.32,1.58,1.1,2.73,1.25,4.14.29,2.68-3.55,6.99-5.34,9.07-5.17,6.01-20.46,20.42-28.84,16.25-10.67-5.31-14.96-25.07-13.86-35.81.1-.96,2.2-3.42-1.28-3.09-1.34.13-1.97,1.35-2.87,1.89-7.08,2.1-6.22-5.72-3.77-10.06,5.12-7.66,20.83-32.91,26.82-36.99,3.91-2.67,8.45-2.79,10.01,2.4,1.27,4.24-5.44,9.37-3.51,11.33.95.55,2.04.56,3.27.02,2.24,5.92,3.66,11.99,4.28,18.21Z"/>
      <path class="st30" d="M86.99,404.49c1.28-.1,7.55-.29,7.53-2.2-.02-2.06-9.93-1.12-12.92-4.68s6.34-7.52,9.16-7.95c2.34-.36,8.44,2.31,11.71,2.82,3.51.54,10.29-.12,13.04,2.05,1.04.82,3.75,6.09,3.51,7.1-.54,2.25-5.34-.85-4.39,3.1.23.97,4.16,1.51,4.35,1.73.23.28.01,2.6.36,3.73.8,2.58,3.83,6.35,5.04,9.42,2.46,6.21,6.14,25.78-2.52,28.27-2.41.69,1.3-5.3,1.46-6.13,1.28-6.68-4.2-2.14-4.59-2.15-.74,0-3.07-4.25-5.33-3.04-1.23,1.21,2.79,13.87,3.06,16.74.41,4.3.39,8.14-1.68,12-2.4,4.47-5.64,6.69-10.65,4.15-2.09-1.06-3.71-7.04-3.93-9.32s-.41-9.16-.04-11.26c.13-.77,4.5-.2,3.8-1.92-.9-2.2-5.39-3.09-7.54-3.47-4.11-.73-4.1,1.32-3.08,4.85-.87,5.36-.99,10.62.28,15.93l-.97,1.85c-1.32,1.23-1.57,2.55-4.09,2.55-5.86-.01-8.55-8.97-9.04-13.63-.31-2.93.52-13.22-.38-14.71-1.02-1.69-8.48-3.26-8.53.34-.02,1.18,1.2,1.38,1.29,1.56,1.73.9,1.71,5.28-.63,5.34,2.04,1.01,1.94,8.86,0,10.06,2.05.12,3.63,5.4,1.26,5.97-7.13-.24-9.55-12.68-8.65-18.4.48-3.04,2.66-5.78,3.44-8.5,1.53-5.31.89-10.98,2.69-16.48,3.48-6.74,10.25-12.59,16.97-15.72Z"/>
      <polygon class="st67" points="295.05 136.01 193.88 145.46 191.36 119.38 191.94 118.08 291 109 292.49 110.03 295.05 136.01"/>
      <path class="st30" d="M469.24,293.84c-2.37,4.86-2.68,9.22-.14,14.1-.21,1.04-3.16,3.02-4.26,3.5-4.24,5.3-5.22,11.27.55,16.05l-.05.82c-4.71,3.44-6.24,9.94-3.65,15.19.06.2-.07.46,0,.63,3.77,2.66,8.02,4.61,12.76,5.84.25.56-.18,1.16-.62,1.61-2.97,3.05-30.05-9.42-32.25-11.86-2.08-.94-4.53-1.34-6.5-2.62-2.77-1.81-3.48-5.35-6.7-6.18-.72-.48-1.14-1.74-1.26-3.77-.31-.31-1.01-.56-1.49-.56-1.93.52-2.22,6.91-2.29,8.73-.11,4.16-2.97,5.88-6.92,5.66-13.36-3.47-5.12-19.71-1.37-28.09,1.31-2.93,8.35-17.03,10.62-17.7,4.12-1.21,5.85,5.2,5.63,8.3-.15,2.15-5.86,16.04,1.02,14.14,2.24-.62,1.55-3.78,1.98-5.61,2.27-9.6,4.99-15.91,14.49-20.09,4.4-1.94,7.86-1.53,11.66-2.8s.29-2.79.19-3.78c-.09-.85,1.68-4.56,2-5.98,2.14-9.59,1.76-18.48,1.02-28.21,4.41-1.35,5.73-2.57,9.04,1.17,3.18,3.59,5.8,10.12,5.92,14.88.08,3.15-2.02,18.65-3.23,21.14-.47.97-4.5,3.06-6.15,5.48Z"/>
      <path class="st79" d="M144.2,393.17c-1.9-20.19-3.36-40.43-5.02-60.65.52-2.67,11.22-13.39,13.81-15.74,1.94-1.77,5.56-3.39,6.92-5.34-.59,27.66-5.99,55.96-15.72,81.73Z"/>
      <path class="st30" d="M335.96,501.94c-6.89,8.74-15.9,16.08-24.48,22.71l-1.3-.7c-.58-.77-.37-1.81.63-3.14,1.97-2.54,3.73-5.87-1.08-3.91-1.48.6-2.37,2-3.32,2.65-1.77,1.69-10.06-9.76-9.88-10.5.07-.29.24-.56.45-.82,4.11-2.95,3.82-3.96,6.92-.63,2.64,2.79,3.69,3.42,3.14,1.89v-.63l-2.51-2.51c-2.03-3.44-.48-3.54,1.89-6.29,1.45-1.26,2.92-2.52,4.4-3.77.64-.21.91-.79,1.86-.34,1.54.74,4.14,4.63,6.32,6,.54.15.75-.06.63-.63-1.61-2.54-4.17-5.05-6.28-7.23,2.37-1.47,12.37-14.15,13.82-14.15,1.01,1.47,8.05,7.83,4.94,3.31-1.71-1.65-3.15-3.38-4.31-5.2.79-.51,3.2-2.1,3.76-2.26,3.41-.98,12.11,9.55,11.79,13.17-.06.67-.64,1.47-.97,2.1-1.08,2.08-8.48,9.21-6.41,10.88Z"/>
      <path class="st43" d="M461.69,344.14c4.82,2.17,9.48,5.61,15.09,5.03,2.03-1.98-8.18-5.4-9.36-7.29-1.38-2.21-.83-5.47.43-7.61,4.06-6.86,18.31-.41,18.99-3.65.83-3.93-10.49-3.89-12.11-4.22-2.09-.42-6.93-4.49-7.26-6.59-.64-4.08,6.06-8.77,9.64-9.02,1.18-.08,12.5,2.23,14.31,2.7,4.42,1.16,4.32,9.47,2.47,12.87-1.6,2.94-3.43,2.01-6.41,2.08-.6,2.95,3.8,3.55,4.7,5.67,1.32,3.11-1.55,12.47-3.79,15.04-3.24,3.71-11.09,3.49-15.67,3.17-10.22-.7-19.95-6-28.84-10.77-.88-.47-1.89-.72-2.29-1.79,5.74,2.58,11.57,5.98,17.18,8.28,3.63,1.49,9.39,3.52,13.31,3.05.87-.1,1.84-.38.94-1.26-1.12-1.1-9.79-1.92-11.31-5.67Z"/>
      <path class="st43" d="M496.84,309.49c-1.61,1.38-21.1-2.71-22.87-6.86-1.35-3.16.85-9.97,5.01-10.11,5.87-.21,17.81,4.28,18.79,10.88.16,1.1-.57,5.79-.93,6.1Z"/>
      <path class="st58" d="M335.96,501.94c.58.47,2.39-.32.91,3.12-.44,1.03-7.29,10.03-8.46,11.34-.54,1.01-1.17,1.63-1.89,1.89-.73,1.6-1.79,3.09-3.02,4.33-2.96,2.97-8.27,7.07-12.06,8.24-1.35-1.7-2.02-2.87-3.14-4.4-.84-.9.02-2.17,1.26-1.89l.63-.63c.46-.4,1.48-.64,2.19-1.25,7.88-6.89,15.8-13.76,23.59-20.75Z"/>
      <path class="st63" d="M268.06,587.44c6.47-14.85,8.5-36.9-1.89-50.3,17.69,9.99,13.62,37.33,1.89,50.3Z"/>
      <path class="st63" d="M241.02,489.36c-15.01-5.54-31.9,6.7-36.95,20.57-.9,2.48-1.02,5.56-2.03,7.72-1.9.31-1.29-.82-1.1-2.03,3.49-22.59,13.36-21.95,30.45-29.92,1.38-.64,3.91-3.06,5.02-3.17,1.95-.19,3.67,5.43,4.61,6.83Z"/>
      <path class="st41" d="M294.46,510.11l2.03-.87c.65.1,7.75,9.68,8.11,10.4.15.3.07.71-.08,1.15-1.39.95-5,3.95-6.13,4.25-4.68,1.25-8.66-6.33-7.62-10.14.59-2.14,1.44-.05,1.8.23,1.47,1.71,2.3,2.13,2.51,1.26-.07-.19.08-.46,0-.63l-1.89-2.51c-.47-1.55.03-1.86,1.26-3.14Z"/>
      <path class="st63" d="M263.03,517.66c.25,1.41-.98,2.29-1.19,3.52-.83,4.88.88,10.05-4.89,7.27-5.29-2.55-10.72-7.15-14.66-11.42,4.52,2.59,13.61,3.51,18.55,2.52,1.19-.24,1.51-1.09,2.2-1.89Z"/>
      <path class="st63" d="M358.59,535.89c-1.91-5.76-3.73-11.61-5.11-17.53-.97-.18-1.63.11-2.44-.7,2.08,1.18,4.45-1.87,4.71-1.88.33,0,4.45,4.34,4.6,4.84.9,3-1.98,11.64-1.77,15.27Z"/>
      <path class="st37" d="M325.9,520.8c-1.17,2.33-2.54,4.43-4.4,6.29-1.95,2.38-4.11,4.55-6.47,6.5l-1.71-.21c-.85-1.01-1.29-1.76-1.89-2.51,4.65-4.37,10.54-8.19,15.09-12.57.76-.23.55.6-.63,2.51Z"/>
      <path class="st74" d="M96.42,443.47c-6.15.13-1.89,3.9-1.89,4.72v13.83c0,.23.78.81.56,1.74-.27,1.12-1.71,1.66-2.44,2.35-.43-2.79-1.18-6.33-1.28-9.09-.17-4.56,1.02-8.03.99-12.38.83-2.64,2.71-1.4,4.06-1.16Z"/>
      <path class="st91" d="M464.84,312.07c-3.58,4.76-4.18,13.07,2.51,15.1.66.99-2.86,2.93-3.77,4.08-2.72,3.45-3.11,8.15-1.89,12.26-3.41-4.74-1.86-10.27,1.27-14.63.36-.5,1.28-.35,1.27-.78-.07-1.85-3.9-3.91-3.81-8.13.08-3.95,2-5.91,4.42-8.52.34.19.33.4,0,.63Z"/>
      <path class="st75" d="M71.9,442.21c1.55-.35,1.69,1.19,1.82,2.25.42,3.41-.24,7.2.07,10.63.37,4.12,4.05,8.68-1.27,8.5.46-1.76-1.26-4.74-1.26-5.97v-10.06c0-1.52,1.98-2.59.63-5.34Z"/>
      <path class="st70" d="M464.84,312.07v-.63c.71-.76,3.05-2.69,3.1-2.89.1-.43-1.8-4.24-1.77-6.16.04-2.56,1.62-6.41,3.08-8.56-1.41,5.22-2.27,9.78,2.5,13.52l-6.9,4.71Z"/>
      <path class="st57" d="M86.99,404.49c.07,1.48-.88,1.64-1.86,2.23-6.37,3.78-10.86,7.22-15.11,13.49.79-2.43,1.42-3.88,3.16-5.96,1.09-1.3,9.26-9.14,10.34-9.82,1-.63,2.26.15,3.48.06Z"/>
      <path class="st40" d="M321.5,550.98c-1.84,1.11-5.88,2.64-6.79-.44-1.33-4.52.85-6.38,3.02-9.62-.31,3.97-2.36,10.23,3.77,10.06Z"/>
      <path class="st2" d="M296.98,508.23l7.14,10.16,2.29,1.16c-.58.39-1.31.86-1.89,1.26-2.81-2.96-4.99-6.56-7.77-9.53-.74-.79-.47-1.61-2.29-1.15.8-.84,1.62-1.25,2.51-1.89Z"/>
      <path class="st55" d="M275.6,517.66c2.45-3.17,3.15-5.8,1.26-9.43,1.64,1.08,4.55,2.23,4.41,4.66-.15,2.73-3.26,4.47-5.67,4.77Z"/>
      <path class="st7" d="M310.81,496.28c-.33,1.14-2.66,2.26-2.47,3.37.21,1.22,7.46,6.47,6.86,9.2-.84,1.06-7.64-8.36-8.8-8.8,1.53-1.77,1.98-2.98,4.4-3.77Z"/>
      <path class="st82" d="M313.32,533.37c2.54-2.25,5.77-3.88,8.17-6.29l-5.98,8.8c-1.32.33-1.68-1.9-2.19-2.51Z"/>
      <path class="st44" d="M416.43,340.99c3.21-1.52,5.24-2.3,6.92-5.66-.16,4.19,2.3,6.11-4.13,6.31-1.35.04-1.79-.39-2.78-.65Z"/>
      <path class="st34" d="M428.37,330.93c.02.1-.64.86-.35,1.87.43,1.49,1.81,3.53,2.86,4.73.02.63-.89.18-1.25.31q-1.88-1.6,0,0c-.74.26-1.33,1.04-2.51.63v-11.32c.5.51,1.05,2.85,1.25,3.77Z"/>
      <path class="st85" d="M247.94,476.16c-3.06-.5-7.78-1.37-6.29,3.14-2.27-.82.04-5.24,1.02-5.59,2.04-.73,3.94,1.09,5.26,2.45Z"/>
      <path class="st49" d="M310.18,523.94l-.63.63c-.35.36-.47,1.56-1.26,1.89-.07-.1-1.86.57-1.15-1.46.29-.84,2.83-3.11,3.67-4.2-.12,1.01-.25,2.22-.63,3.14Z"/>
      <path class="st45" d="M285.03,508.85c-.48-.99-.37-1.22.63-.63.58.76,2.7,1.95,1.26,2.84-.98.6-1.47-1.62-1.89-2.21Z"/>
      <path class="st13" d="M307.04,509.48c1.38.95,2.95,3.37.95,2.51-.98-.42-3.19-3.42-4.1-4.4,1.07.42,1.63,1.62,2.52,2.16.3.18.6-.29.63-.28Z"/>
      <path class="st29" d="M327.78,478.05l6.92,8.17c-3.19-.55-5.51-3.99-7.54-6.28,1.06,0,4.19,4.55,5.65,5.03-.56-2.48-3.46-4.06-5.03-5.97-.66-.81-.87-.38,0-.94Z"/>
      <path class="st24" d="M325.9,520.8c.35-.7.33-1.67,1.24-2.21l-.62-.31c.5-.48,1.49-1.44,1.89-1.89l-2.51,4.4Z"/>
      <path class="st50" d="M285.66,508.23l-.63.63c-.43-.61-.8-1.31-1.26-1.89h.63c.2.27.82.68,1.26,1.26Z"/>
      <path class="st6" d="M295.09,516.4c.17.44,1.38,1.34.32,1.88l-2.83-3.14c.77.59,1.58,1.1,2.2,1.88l.31-.62Z"/>
      <path class="st52" d="M376.82,559.78c-.24.36-.1,1.53-.95,1.88-1.37.57-.76-.94-.93-1.25,1.42,1.05,1.04.55,1.89-.63Z"/>
      <path class="st54" d="M319.61,501.31c.12.19.97.07.63,1.25-1.19.34-1.06-.51-1.25-.63l.63-.63Z"/>
      <path class="st55" d="M273.71,517.66c-2.09-.17-1.79-.49-3.14-1.26l3.14,1.26Z"/>
      <path class="st6" d="M295.09,515.77c-1.37-.52-1.52-1.29-1.89-2.51.72.71,1.45,1.61,1.89,2.51Z"/>
      <path class="st13" d="M307.04,508.85c-1.12-.57-1.88-1.45-2.51-2.51l2.51,2.51Z"/>
      <path class="st64" d="M224.6,313.88c-.79.5-3.22.21-3.62-.95-1-2.96,2.32-6.64,1.7-9.18-.3-1.25-4.77-8.15-5.84-10.56-10.61-23.77-15.02-68.28-1.47-91.33,6.49-11.03,17.55-14.91,28.17-6.42,21.86,17.47,29.59,74.85,20.41,99.64-3.95,10.66-7.19.67-13.97-.46-10.64-1.78-17.18,3.26-22.28,12-.84,1.44-2.78,7.04-3.12,7.25Z"/>
      <path class="st64" d="M317.09,180.05c19.43-2.58,30.69,25.55,34.53,40.6,5.38,21.1,6.64,45.76-.48,66.5,1.34,1.73,5.82,7.16,2.08,7.95s-4.19-3.56-6.32-6.24c-.76-.96-1.33-1.24-2.15-1.93-1.81-.54-3.28-1.38-4.4-2.51-.61.28-1.24.07-1.89-.63-6.81-1.41-12.76.31-17.91,5.03-4.14,3.8-5.87,9.44-11.27,1.2-15.42-23.51-21.53-85.44.26-106.2l.63-.63,1.89-1.26,2.51-1.26,2.51-.63Z"/>
      <path class="st64" d="M337.21,325.28c3.73-.85,5.09-3.22,8.2-2.85,2.76,1.9-4.16,6.09-5.88,6.74-2.86,1.08-5.55,1.35-8.61,1.14.19,16.52-10.12,35.3-25.34,42.24-23.41,10.68-46.4-5.3-50.73-29.03-1.99,2-11.5,2.98-12.49.23-1.31-3.64,4.14-1.76,7.19-2.71,4.39-1.36,8.51-6.13,10.84-9.9,1.06-1.72,1.44-5.03,3.6-5.25,6.21-.64-2.95,10.73-2.8,11.57.21,1.24,3.5,2.46,4.65,2.92,13.79,5.49,36.33,2.39,48.31-6.4,2.5-1.83,8.17-6.94,7.96-10.22-.11-1.67-6.2-11.55-2.13-12.88,3.47-1.14,2.87,4.65,3.9,7.3,2.29,5.9,7.37,8.45,13.33,7.1Z"/>
      <path class="st15" d="M321.35,150c1.74-.24,6,.32,7.73.77,5.12,1.34,14.49,10.14,11.31,15.79-3.85,6.82-9.73-2.25-12.77-3.64-3.5-1.6-9.09-.22-11.74-2.72-3.99-3.76,1.04-9.59,5.48-10.21Z"/>
      <path class="st15" d="M207.49,178.57c-2.67,2.3-6.05,2.7-7.99-.69-3.22-5.61,6.2-14.45,11.31-15.79s14.83-1.08,14.54,6.31c-.25,6.29-8.65,3.98-12.74,5.55-3,1.15-3.39,3.14-5.12,4.62Z"/>
      <path class="st8" d="M305.15,314.59c-3.52,6.41-12.04,4.98-17.49,1.92-.42-.24-.37-.78-.12-1.29,1.84-1.77,6.53.77,9.04.6,5.77-.4,7.87-7.75,1.65-10.35-1.36-.57-11.34-1.8-4.58-3.32,7.84-1.76,13.66,4.53,11.49,12.43Z"/>
      <path class="st32" d="M293.83,378.71c3.98-.4,7.34-2.68,10.37-3.15,2.98-.46-.82,2.08-1.57,2.52-3.92,4.37-13.85,6.07-18.23,1.89-.11-.17-2.34-1.39-.29-1.88.74-.17,5.93.66,7.83.62.29-1.03,1.37-.95,1.89,0Z"/>
      <path class="st42" d="M284.4,379.97c5.15,2.86,13.33,1.05,18.23-1.89-1.25,5.6-14.56,6.29-17.62,3.45-.58-.54-.42-1.25-.62-1.56Z"/>
      <path class="st48" d="M305.15,314.59c-2.25,8.2-12.3,4.68-18.23,2.51-.21-1.07-.08-1.2.62-1.88,4.41,4.65,13.35,4.22,17.6-.63Z"/>
      <path class="st16" d="M242.05,295.18c1.38-.42,8.95-.49,9.02,1.49.04,1.19-1.92.67-2.51.64-1.27-.07-10.95-.78-6.51-2.13Z"/>
      <path class="st61" d="M327.16,286.92c-.3-1.64.31-1.11,1.25-1.54,1.75-.81,4.72-1.86,6.28-.03l-7.53,1.57Z"/>
      <path class="st38" d="M244.8,339.11c.21-.3,3.85-1.29,4.39.31-.86,2.21-5.7,1.51-4.39-.31Z"/>
      <path class="st62" d="M337.21,325.28c-2.79.67-2.2-3.77,1.88-2.51.64.55-1.55,2.43-1.88,2.51Z"/>
      <path class="st4" d="M294.46,306.42c.6-.62,2.7.74,3.13,1.57-1.47,2.53-4.2-.47-3.13-1.57Z"/>
      <path class="st84" d="M344.76,286.93c-1.97.02-3.46-.83-5.03-1.89-.77-.79-.43-.76.63-.63,2.45.87,2.47.89,4.4,2.51Z"/>
      <path class="st65" d="M291.95,378.71c-.55-1.87,2.37-2,1.89,0-.61.06-1.27-.01-1.89,0Z"/>
      <path class="st12" d="M250.45,299.5c.69.69-.57,1.94-1.25,1.25s.57-1.94,1.25-1.25Z"/>
      <path class="st87" d="M232.85,309.56c.69.69-.57,1.94-1.25,1.25s.57-1.94,1.25-1.25Z"/>
      <path class="st59" d="M240.39,305.79c.69.69-.57,1.94-1.25,1.25s.57-1.94,1.25-1.25Z"/>
      <path class="st56" d="M342.24,297.62c.69.69-.57,1.94-1.25,1.25s.57-1.94,1.25-1.25Z"/>
      <path class="st51" d="M340.36,284.41l-.63.63c-.53-.36-1.05-.57-1.26-1.26.98.2,1.17.37,1.89.63Z"/>
      <path class="st94" d="M253.59,296.99c.69.69-.57,1.94-1.25,1.25s.57-1.94,1.25-1.25Z"/>
      <path class="st99" d="M335.32,289.44c.69.69-.57,1.94-1.25,1.25s.57-1.94,1.25-1.25Z"/>
      <path class="st31" d="M312.07,181.93c-.42.22-.68.71-1.89,1.26,1.04-.93,1-.71,1.89-1.26Z"/>
      <path class="st35" d="M317.09,180.05c-.13.02-2.36.58-2.51.63.77-.3,1.35-1.02,2.51-.63Z"/>
      <path class="st60" d="M241.65,297.62l-1.25,1.25c-.18-1.31-.06-1.43,1.25-1.25Z"/>
      <path class="st81" d="M325.9,291.95c-1.31.18-1.43.06-1.25-1.25l1.25,1.25Z"/>
      <path class="st97" d="M238.5,317.73c-.22.43-1.07-.37-.62-1.25.22-.43,1.07.37.62,1.25Z"/>
      <path class="st68" d="M232.21,317.1c-.22.43-1.07-.37-.62-1.25.22-.43,1.07.37.62,1.25Z"/>
      <path class="st5" d="M329.04,295.1c.43.22-.37,1.07-1.25.62-.43-.22.37-1.07,1.25-.62Z"/>
      <path class="st1" d="M340.98,293.84c-.22.43-1.07-.37-.62-1.25.22-.43,1.07.37.62,1.25Z"/>
      <path class="st18" d="M235.99,305.78c-.22.43-1.07-.37-.62-1.25.22-.43,1.07.37.62,1.25Z"/>
      <path class="st93" d="M244.79,303.9c-.22.43-1.07-.37-.62-1.25.22-.43,1.07.37.62,1.25Z"/>
      <path class="st72" d="M314.58,180.68c-.13.05-2.16,1.07-2.51,1.26,1.13-.69,1.24-.76,2.51-1.26Z"/>
      <path class="st66" d="M324.32,298.87c.41.21.41.42,0,.63v-.63Z"/>
      <path class="st46" d="M309.55,183.82c.21-.2.41-.43.63-.63-.19.09-.39.48-.63.63Z"/>
      <path class="st1" d="M247.62,310.82c.41.21.41.42,0,.63v-.63Z"/>
      <path class="st30" d="M209.59,550.98c1.75-1.63,7.27,5.35,8.85,6.54,10.23,7.75,28.57,5.78,34.86,12.29,5.14,5.32,6.25,15.34-3.61,14.35-11.05-1.11-32.78-18.25-38.09-27.96-.46-.84-2.65-4.62-2.01-5.22Z"/>
      <path class="st77" d="M204.56,540.29c1.37-1.44,4.59,3.27,2.19,3.77-1.56.32-2.82-3.1-2.19-3.77Z"/>
      <path class="st43" d="M401.82,479.47c2.05-.26,6.27-.43,6.99,2.17,1.4,5.03-12.15,13.84-15.64,16.83-3.04,2.61-8.47,11.31-13.23,6.33-3.34-3.49,1.81-12.52,4.45-15.73,3.61-4.4,11.76-8.88,17.43-9.6Z"/>
      <path class="st100" d="M347.11,510.27c3.1,3.09-7.08,16.49-10.56,14.03-2.29-1.62,4.04-11.68,5.69-13.24,1.29-1.22,3.34-2.32,4.87-.79Z"/>
      <path class="st0" d="M335.94,528.32c-1.48,1.97-4.29-1.88-2.49-3.12,1.57-1.08,3.38,1.93,2.49,3.12Z"/>
      <path class="st25" d="M357.33,545.31c-.23-1.14.8-4.04,2.19-3.77,2.19.43-1.32,4.68-2.19,3.77Z"/>
      <path class="st76" d="M103.87,405.03c-1.22.77-5.37.23-4-2.43,1.68-3.26,6.56.8,4,2.43Z"/>
      <path class="st53" d="M195.13,121.58c.1-.73-.24-1.85.1-2.42.59-1,19.03-1.57,21.62-1.38,4.59.34,2.48,2-.71,2.49-6.63,1-14.27.98-21.01,1.31Z"/>
      <path class="st33" d="M227.19,119.06c-1.12.23-2.57,1.18-3.13-.32-1.15-3.04,4.31-1.24,3.13.32Z"/>
      <path class="st39" d="M330.29,498.79c-.8.76-5.72-4.73-6.28-5.65,1.65-.84,6.94,5.03,6.28,5.65Z"/>
      <path class="st89" d="M323.38,491.88c-1.16.43-3.09-1.97-2.51-2.51,1.96-.29,2.79.61,2.51,2.51Z"/>
      <path class="st14" d="M338.47,489.99c-1.16.43-3.09-1.97-2.51-2.51,1.96-.29,2.79.61,2.51,2.51Z"/>
      <path class="st17" d="M323.38,505.08h-1.88s0-1.25,0-1.25c.87-.19,1.67.34,1.88,1.25Z"/>
      <path class="st30" d="M482.91,350.89c-1.12,1.16-6.86.69-8.64.79-.22-2.44,4.28-.77,3.48-3.83-.93-3.51-10.79-3.56-10.37-9.61.67-9.62,12.07-4.71,17.3-5.38,2.14-.27,3.6-2.44,5.99.86,1.92,2.66-1.1,14.51-3.81,15.81-.72.34-1.58-1.36-2.82-.99-.86.25-.71,1.94-1.11,2.35Z"/>
      <path class="st90" d="M309.55,524.57c.21-.22.4-.43.63-.63-.11.26-.4.46-.63.63Z"/>
      <path class="st98" d="M298.23,521.42c-.22.43-1.07-.37-.62-1.25.22-.43,1.07.37.62,1.25Z"/>
      <path class="st30" d="M429.63,337.85h-1.88s0-3.14,0-3.14c.3-.42,2.27,2.26,1.88,3.14Z"/>
      <path class="st30" d="M236.62,229.71c-3.02-10.93-5.32-22.38-11.89-31.85,6.08-7.38,14.08-2.16,19.12,3.55,14.93,16.92,20,52.67,18.53,74.5-.15,2.17-2.51,18.52-4.08,18.54-4.53-3.65-11.66-5.24-17.29-3.76l.02-23.6c-1.56-5.86,0-15.14-2.03-20.6-.72-1.94-4.13-.75-5.91-1.03-.84-.13-1.28-.61-1.52-.66-3.58-1.02-5.25-2.7-5.03-5.03.89-2.45,1.52-2.25,3.14-3.77l1.66-1.29c3.84-1.02,5.59-2.69,5.25-5Z"/>
      <path class="st96" d="M229.71,236c.39-.36.59-1,1.28-1.52,1.89-1.43,6.02-2.29,5.63-4.77.22.81,1.4,1.21.05,2.89-.72.9-5.57,2.47-6.97,3.4Z"/>
      <path class="st11" d="M231.59,244.8c-3.23-.71-6.41-1.26-5.03-5.03-.46,2.91,3.57,2.79,5.03,5.03Z"/>
      <path class="st30" d="M329.67,279.38c.33-14.58-.43-29.12-1.97-43.61-.4-1.28-7.44-1.38-9.69-2.26-11.24-4.38,6.42-12.07,6.66-13.03.76-3.05-3.56-16.58-4.89-20.18-1.13-3.08-6.24-12.14-6.48-13.69s5.35-3.39,6.65-3.45c7.45-.39,14.95,9.91,18.22,15.73,11.19,19.91,15.61,53.35,11.46,75.61-.34,1.82-1.39,9.37-3.61,8.34-5.8-2.7-9.42-4.41-16.35-3.46Z"/>
      <path class="st43" d="M260.02,347.14c-.62-.63-1.8-6.22-1.39-6.78,3.2,1.71,6.38,3.26,9.92,4.22,16.19,4.41,42.65.53,53.9-13.02,1.11-1.33,2.6-4.86,2.83-5.04,2.41-1.82,2.46,7.44.6,9.72-.41.5-3.35,2.74-4.17,3.37-15.21,11.77-37.29,16.35-55.67,9.99-.87-.3-5.78-2.25-6.01-2.48Z"/>
      <path class="st86" d="M288.17,365.51c1.15-.56,2.41-.56,3.77,0l1.26.63.63.63.63.63c1.14.88,2.81,2.15,3.77,3.14.5.26.45.95,0,1.26-1.44.64-13.23,1.23-13.83.63-1.27-1.27.95-6.44,3.78-6.92Z"/>
      <path class="st3" d="M302.01,364.88c.31.05.88.45,1.26.63l.63.63c.83.68,2.16,1.07,1.88,2.5-1.54.22-3.67,2.3-5.24,1.83-.55-.17-4.69-4.91-2.93-5.59,1.36-.62,3.02-.59,4.4,0Z"/>
      <path class="st83" d="M302.01,364.88c-.65-.1-4.04-.14-4.4,0,.79-1.04,3.61-1.04,4.4,0Z"/>
      <path class="st73" d="M291.95,365.51c-.76-.14-3-.13-3.77,0,1.13-1.54,2.65-.39,3.77,0Z"/>
      <path class="st26" d="M298.23,371.8v-1.26s.52-.1.63.32c.23.73-.13.72-.63.94Z"/>
      <path class="st69" d="M293.2,366.14c-.38-.16-1.19-.62-1.26-.63.59.2.76.32,1.26.63Z"/>
      <path class="st27" d="M294.46,367.4c-.23-.19-.41-.44-.63-.63.23.17.4.45.63.63Z"/>
      <path class="st80" d="M293.83,366.77c-.21-.19-.47-.56-.63-.63.24.15.4.46.63.63Z"/>
      <path class="st9" d="M303.89,366.14l-.63-.63c.2.1.41.45.63.63Z"/>
    </g>
    <g>
      <path class="st71" d="M70.86,308.07l-47.22,7.52-2.69-16.39,32.78-4.72-7.14-13.86,17.96-7.02,6.31,34.47Z"/>
      <path class="st71" d="M13.3,271.3c-.03-.89.15-1.76.55-2.6.4-.85.94-1.6,1.6-2.27.67-.66,1.44-1.2,2.31-1.61s1.77-.63,2.68-.67c1.71-.07,3.26.21,4.67.81,1.4.61,2.61,1.4,3.62,2.39,1.01.99,1.8,2.09,2.39,3.31.58,1.22.91,2.42.98,3.61l-4.03,1.15c-.33-.95-.72-1.79-1.18-2.54-.45-.75-.92-1.38-1.41-1.9-.49-.52-.97-.91-1.45-1.19-.48-.28-.91-.44-1.3-.5-.06.09-.02.25.12.46s.32.48.53.82c.21.33.4.73.59,1.19.19.46.29.99.32,1.58.02.55-.11,1.07-.4,1.57-.29.5-.68.94-1.16,1.33-.49.38-1.04.69-1.67.92-.63.23-1.29.36-1.97.38-.8.03-1.54-.14-2.24-.51-.7-.37-1.3-.86-1.82-1.47-.51-.61-.92-1.29-1.23-2.04-.3-.75-.47-1.49-.5-2.22Z"/>
      <path class="st71" d="M65.29,261.57l-47.74-3.27.72-14.89,1.62-15.85,11.96,1.46-2.26,15.19,6.27.44.59-10.38,10.88,1.14-.18,10.03,4.91.34.3-15.23,13.9-1.1.9,17.38-1.88,14.73Z"/>
      <path class="st71" d="M73.39,211c-.6,2.27-1.37,4.32-2.29,6.14-.92,1.83-1.99,3.46-3.19,4.88-1.21,1.42-2.56,2.67-4.08,3.74-1.51,1.07-3.16,1.99-4.95,2.77l-11.78-6.22c.94-.41,1.88-1.07,2.83-1.99.95-.91,1.83-1.94,2.64-3.08.81-1.14,1.52-2.32,2.13-3.55s1.05-2.36,1.33-3.4c.33-1.25.4-2.26.2-3.01-.2-.75-.59-1.2-1.16-1.35-.46-.12-.92.05-1.36.52-.44.47-.91,1.12-1.41,1.96-.49.84-1.03,1.79-1.62,2.88-.58,1.08-1.24,2.17-1.98,3.26-.74,1.09-1.58,2.13-2.51,3.12-.94.99-2,1.81-3.19,2.46-1.19.65-2.53,1.07-4.02,1.26s-3.17.04-5.04-.46c-1.65-.44-3.07-1.13-4.26-2.07-1.19-.94-2.18-2.04-2.97-3.31-.8-1.26-1.4-2.64-1.83-4.15-.42-1.5-.71-3.04-.84-4.59-.14-1.56-.13-3.11.02-4.65.15-1.54.41-2.98.77-4.32.52-1.96,1.34-3.85,2.45-5.68,1.11-1.83,2.41-3.45,3.9-4.87,1.49-1.42,3.1-2.59,4.83-3.51,1.73-.92,3.48-1.43,5.26-1.55l5.93,11.17c-1.27.34-2.5.78-3.69,1.31-1.19.53-2.28,1.13-3.25,1.79-.98.66-1.8,1.37-2.46,2.12-.66.76-1.1,1.53-1.31,2.32-.12.46-.21.95-.25,1.46-.04.51,0,.98.1,1.41s.3.81.58,1.14c.28.33.68.57,1.21.71.75.2,1.48.04,2.18-.48.71-.52,1.43-1.26,2.17-2.22.74-.96,1.51-2.07,2.3-3.33.8-1.26,1.66-2.54,2.58-3.82.92-1.29,1.92-2.52,3.01-3.71,1.08-1.19,2.28-2.18,3.59-2.99,1.31-.81,2.75-1.35,4.33-1.64,1.57-.29,3.31-.18,5.2.33,1.72.46,3.22,1.14,4.49,2.05,1.28.91,2.35,1.97,3.22,3.18.87,1.21,1.54,2.55,2.03,4.01.48,1.46.8,2.97.96,4.54s.17,3.15.02,4.75c-.14,1.6-.42,3.16-.82,4.68Z"/>
      <path class="st71" d="M79.62,191.52l-44.39-21.81c.57-1.32,1.13-2.57,1.67-3.75.54-1.18,1.08-2.35,1.61-3.51.53-1.16,1.08-2.33,1.64-3.5.56-1.17,1.16-2.4,1.79-3.69l2.56,1.14c-.03-1.39.06-2.76.28-4.13.21-1.37.63-2.68,1.26-3.95.63-1.29,1.41-2.37,2.34-3.25.93-.88,1.95-1.57,3.06-2.08,1.11-.51,2.29-.85,3.55-1.02,1.25-.17,2.52-.2,3.81-.09,1.29.11,2.56.35,3.82.71,1.26.36,2.46.83,3.6,1.39,2.21,1.09,4.2,2.37,5.99,3.86,1.78,1.49,3.21,3.11,4.28,4.86,1.07,1.76,1.69,3.61,1.88,5.55.19,1.95-.21,3.91-1.18,5.89-.48.98-1.14,1.88-1.98,2.68-.84.81-1.7,1.54-2.58,2.2l14.15,6.38-7.15,16.1ZM52.86,159.71c-.06.12-.09.26-.09.41l10.14,4.56c.16-.12.29-.29.39-.49.16-.33.22-.76.17-1.29s-.21-1.09-.5-1.69-.73-1.2-1.33-1.79-1.35-1.12-2.27-1.57c-.92-.45-1.75-.68-2.48-.69-.73,0-1.36.12-1.89.36-.53.25-.97.58-1.33,1-.36.42-.63.81-.81,1.18Z"/>
      <path class="st71" d="M95.14,157.38l-39.41-27.62,10-13.18,1.83,1.26c.72-1.74,1.65-3.37,2.8-4.87,1.39-1.83,2.96-3.31,4.72-4.44s3.57-1.88,5.44-2.25c1.87-.37,3.74-.34,5.62.08,1.88.43,3.65,1.26,5.3,2.52,2.67,2.02,4.23,4.36,4.69,6.99.46,2.64-.21,5.58-2.01,8.81l18.48-2.41.38,13.58-19.33-.25,12.44,8.49-10.94,13.28ZM76.6,119.72c-.41.54-.69,1.13-.84,1.76-.15.63-.24,1.22-.28,1.76l5.97,4.06c.35-.31.72-.73,1.12-1.25.29-.38.44-.85.44-1.4,0-.55-.08-1.12-.27-1.71-.19-.58-.44-1.13-.75-1.64-.31-.51-.64-.9-.99-1.16-.27-.21-.61-.42-1-.63-.4-.21-.79-.37-1.2-.46-.4-.09-.8-.1-1.19-.02-.39.08-.73.31-1.02.69Z"/>
      <path class="st71" d="M118.19,129.3l-33.12-35.85,10.91-10.84,33.66,33.87-11.45,12.82Z"/>
      <path class="st71" d="M129.6,72.58l22.34,27.55-13.93,10.48-20.24-29.13-9.45,7.11-8.31-10.43,31.39-23.6,6.35,11.91-8.14,6.12Z"/>
      <path class="st71" d="M190.69,77.88c-1.71.69-3.47,1.2-5.28,1.53l.69,1.71-13.65,6.1-17.15-44.97,12.86-5.86.97,2.41c.76-.43,1.54-.84,2.34-1.23.8-.39,1.6-.75,2.4-1.07,2.05-.82,3.96-1.37,5.73-1.65,1.77-.28,3.35-.3,4.77-.05,1.41.24,2.62.75,3.62,1.53,1,.78,1.75,1.8,2.26,3.07.41,1.02.62,2.11.65,3.27.03,1.17-.14,2.37-.49,3.6-.35,1.23-.88,2.48-1.59,3.75-.71,1.27-1.59,2.5-2.65,3.71,1.95-.39,3.79-.54,5.51-.46,1.72.09,3.27.39,4.66.91,1.39.52,2.59,1.26,3.61,2.21,1.02.95,1.8,2.1,2.33,3.43.66,1.65.86,3.34.6,5.08-.26,1.74-.9,3.41-1.93,5.01-1.03,1.6-2.41,3.1-4.15,4.48-1.74,1.39-3.77,2.54-6.1,3.48ZM174.03,45.86c-.34.14-.63.3-.87.5-.24.19-.45.41-.62.65.53,1.31,1.06,2.64,1.62,3.99.55,1.35,1.12,2.75,1.71,4.21.57-.23,1.08-.65,1.52-1.25.44-.61.79-1.28,1.03-2.03.24-.75.38-1.5.42-2.27.04-.76-.05-1.42-.27-1.97-.17-.42-.42-.79-.74-1.1-.32-.31-.69-.55-1.11-.71-.42-.16-.86-.25-1.32-.26-.46-.01-.91.07-1.35.25ZM178.9,60.95c-.13.05-.24.1-.33.15s-.19.1-.28.17c.65,1.68,1.31,3.38,1.99,5.09s1.38,3.48,2.1,5.27c.32,0,.64-.03.96-.07.33-.04.65-.13.96-.26.61-.25,1.15-.61,1.61-1.09.46-.48.81-1.02,1.06-1.62.25-.6.39-1.24.41-1.91.02-.67-.09-1.33-.34-1.96-.3-.74-.76-1.4-1.39-1.99-.63-.58-1.32-1.05-2.09-1.41-.77-.35-1.56-.58-2.38-.66-.82-.09-1.58,0-2.28.29Z"/>
      <path class="st71" d="M207.6,72.64l-10.76-46.91,16.25-3.09.52,2.16c1.7-.81,3.48-1.39,5.34-1.75,2.26-.43,4.42-.48,6.48-.14,2.06.34,3.91,1,5.54,1.97,1.63.98,3.01,2.25,4.12,3.83,1.11,1.58,1.86,3.38,2.25,5.42.63,3.29.23,6.07-1.2,8.33-1.42,2.27-3.89,4-7.4,5.2l15.34,10.58-8.82,10.34-14.19-13.13,3.55,14.63-17.02,2.54ZM219.05,32.26c-.67.13-1.27.38-1.81.74-.53.37-1,.74-1.39,1.12l1.72,7.01c.46,0,1.02-.06,1.67-.18.47-.09.89-.34,1.27-.75.38-.41.69-.89.94-1.45.25-.56.43-1.13.54-1.72.11-.59.12-1.1.04-1.52-.06-.34-.17-.72-.32-1.14-.15-.42-.34-.8-.58-1.14-.24-.34-.53-.61-.87-.81-.34-.2-.75-.26-1.22-.17Z"/>
      <path class="st71" d="M243.51,67.23l-.57-48.8,15.36-.74,2.29,47.69-17.09,1.85Z"/>
      <path class="st71" d="M291.71,76.4l-4.26-7.67c-1.14.23-2.33.36-3.56.4s-2.49,0-3.78-.13c-2.63-.26-4.95-.82-6.95-1.67-2-.85-3.72-1.94-5.17-3.28-1.45-1.33-2.63-2.86-3.55-4.59-.92-1.73-1.62-3.6-2.11-5.62-.49-2.02-.77-4.15-.86-6.4-.09-2.25-.01-4.55.22-6.88.35-3.51,1.18-6.68,2.5-9.51,1.32-2.82,3.02-5.2,5.08-7.12,2.07-1.92,4.45-3.34,7.13-4.26,2.69-.91,5.58-1.22,8.66-.91s5.86,1.18,8.33,2.61c2.47,1.44,4.53,3.3,6.18,5.59,1.65,2.29,2.85,4.95,3.61,7.98.75,3.03.96,6.29.61,9.78-.45,4.49-1.27,8.28-2.46,11.37-1.2,3.09-2.71,5.61-4.53,7.56l5.62,3.2-10.73,9.55ZM281.44,57.24c.63.06,1.21-.26,1.71-.98.51-.72.96-1.66,1.35-2.84.39-1.17.72-2.52.98-4.04.26-1.52.47-3.04.62-4.56.1-1.04.18-2.13.24-3.27.05-1.14.07-2.26.06-3.38-.02-1.11-.07-2.17-.15-3.17-.08-1-.22-1.9-.4-2.69-.19-.79-.42-1.42-.69-1.89-.27-.47-.6-.73-.99-.77-.41-.04-.8.14-1.17.54-.37.4-.72.95-1.04,1.67-.32.71-.63,1.55-.92,2.5s-.55,1.97-.78,3.03c-.23,1.06-.43,2.15-.6,3.26-.17,1.11-.3,2.17-.4,3.19-.14,1.45-.23,2.95-.26,4.51-.03,1.55.04,2.98.2,4.28.16,1.3.42,2.38.78,3.24.36.86.85,1.32,1.46,1.38Z"/>
      <path class="st71" d="M320.56,75.66c-2.78-.9-5.06-2-6.87-3.31-1.8-1.3-3.22-2.76-4.26-4.38-1.03-1.62-1.72-3.37-2.07-5.25-.35-1.88-.45-3.87-.3-5.95.15-2.08.5-4.25,1.04-6.49.55-2.24,1.19-4.51,1.94-6.81.24-.74.56-1.65.96-2.73s.84-2.24,1.32-3.47c.48-1.23.99-2.51,1.53-3.83.54-1.32,1.08-2.6,1.62-3.82.54-1.23,1.06-2.35,1.54-3.38.49-1.03.93-1.88,1.32-2.57l15.24,6.09-7.88,21.52c-.56,1.52-1.04,3.05-1.42,4.61s-.63,2.97-.75,4.25c-.12,1.28-.08,2.36.12,3.24.19.88.56,1.4,1.1,1.58.56.18,1.18,0,1.85-.55.67-.55,1.36-1.35,2.07-2.4.71-1.05,1.41-2.31,2.1-3.77.69-1.46,1.33-3.04,1.92-4.71l6.31-21.24,16.13,3.33c-.08.76-.24,1.71-.48,2.83-.24,1.12-.53,2.32-.86,3.6-.33,1.28-.69,2.61-1.08,3.98-.39,1.37-.77,2.69-1.16,3.95-.39,1.26-.75,2.44-1.09,3.53s-.63,2-.87,2.74c-.83,2.56-1.71,4.95-2.65,7.17-.94,2.22-1.98,4.21-3.14,5.97-1.16,1.76-2.46,3.26-3.92,4.5-1.46,1.24-3.12,2.16-5,2.74-1.88.59-4,.82-6.35.69-2.35-.13-5.02-.67-7.98-1.64Z"/>
      <path class="st71" d="M343.58,82.93l22.99-41.97,13.21,6.9,13.71,8.12-6.34,10.24-12.84-8.42-3.04,5.51,9.17,4.88-5.6,9.4-9.03-4.37-2.37,4.31,13.7,6.67-4.83,13.08-16.15-6.47-12.59-7.89Z"/>
      <path class="st71" d="M391.78,94.55c-1.02-.79-1.9-1.69-2.64-2.69-.74-1-1.34-2.06-1.78-3.19-.45-1.12-.74-2.29-.89-3.49-.15-1.2-.14-2.4.02-3.6.16-1.2.48-2.37.96-3.53.48-1.15,1.11-2.24,1.91-3.25.8-1.03,1.7-1.91,2.7-2.65,1-.74,2.06-1.33,3.18-1.78,1.12-.45,2.29-.74,3.49-.89,1.2-.15,2.4-.14,3.6.02,1.2.16,2.37.48,3.53.95,1.16.47,2.24,1.11,3.26,1.9,1.03.8,1.91,1.7,2.64,2.71.73,1,1.32,2.06,1.76,3.18.44,1.12.74,2.28.88,3.48.15,1.2.14,2.4-.02,3.6-.16,1.2-.48,2.37-.96,3.52-.48,1.15-1.11,2.24-1.91,3.25-.79,1.02-1.69,1.89-2.69,2.62s-2.06,1.32-3.18,1.76c-1.12.44-2.28.74-3.48.9-1.2.16-2.4.16-3.6,0s-2.37-.47-3.52-.94c-1.15-.47-2.23-1.1-3.25-1.89ZM393.35,92.54c1.25.97,2.61,1.65,4.08,2.02,1.48.38,2.94.48,4.41.29,1.46-.18,2.86-.64,4.2-1.37,1.34-.73,2.49-1.72,3.46-2.95.97-1.25,1.65-2.6,2.03-4.08.38-1.47.48-2.94.3-4.42-.18-1.47-.63-2.88-1.35-4.21s-1.7-2.49-2.95-3.46c-1.25-.97-2.61-1.65-4.08-2.02-1.48-.38-2.95-.47-4.42-.29-1.47.18-2.88.64-4.21,1.36s-2.49,1.71-3.46,2.96c-.98,1.26-1.66,2.62-2.04,4.09-.38,1.47-.48,2.94-.3,4.4.18,1.46.63,2.86,1.36,4.2.73,1.33,1.72,2.49,2.98,3.47ZM390.24,86.32l10.11-14.02,4.68,3.65-10.07,14.36-4.72-3.99ZM400.78,81.1c.11.17.21.31.32.44.11.13.26.27.45.41.14.11.3.16.5.17s.4-.03.61-.09.41-.15.59-.26.33-.23.43-.35c.07-.09.15-.21.23-.35s.13-.28.17-.43c.03-.14.04-.28.01-.42-.03-.14-.11-.26-.24-.37-.16-.12-.33-.21-.51-.27-.18-.06-.36-.1-.52-.13-.16-.03-.31-.04-.44-.05-.13,0-.22-.01-.26-.02l1.84-3.01c.86.28,1.64.7,2.36,1.26.65.51,1.17,1.08,1.57,1.72s.65,1.29.78,1.97.1,1.35-.06,2.02-.47,1.29-.92,1.88c-1.5,1.93-3.4,2.22-5.7.89l.78,6.65-4.88.06.22-8.7,2.68-3.01Z"/>
    </g>
    <g>
      <ellipse class="st21" cx="243.95" cy="231.9" rx="215.89" ry="219.19" transform="translate(-33.61 41.5) rotate(-9.1)"/>
      <g>
        <ellipse class="st71" cx="428.96" cy="119.65" rx="18.17" ry="18.45" transform="translate(-1.04 235.49) rotate(-30.66)"/>
        <path class="st23" d="M431.43,133.42c-9.34.72-14.69-6.68-15.77-9.42-1.08-2.74-.16-5.22-.16-5.22,0,0,1.96,5.09,4.73,7.83,0,0,2.71,2.77,4.33,3.8,1.63,1.03,6.88,3.01,6.88,3.01Z"/>
      </g>
      <g>
        <path class="st71" d="M49.61,328.27c-8.62,5.17-11.44,16.47-6.29,25.24,5.15,8.78,16.31,11.7,24.94,6.53,8.62-5.17,11.44-16.47,6.29-25.24-5.15-8.78-16.31-11.7-24.94-6.53Z"/>
        <path class="st23" d="M48.11,335.4c-5.12,7.89-1.24,16.15.63,18.41,1.87,2.27,4.47,2.64,4.47,2.64,0,0-3.5-4.16-4.56-7.91,0,0-1.12-3.71-1.23-5.64-.11-1.93.69-7.5.69-7.5Z"/>
      </g>
    </g>
  </g>
  <circle class="st20" cx="261.64" cy="261.42" r="258.69"/>
</svg>